<svg width="16" height="16" viewBox="0 0 16 16" fill="none" xmlns="http://www.w3.org/2000/svg">
<rect width="16" height="16" fill="#013243"/>
<path d="M11.6235 11.4909C11.277 11.9059 10.7872 12.2289 10.154 12.4599C9.52086 12.6866 8.81925 12.8 8.0492 12.8C7.24064 12.8 6.53048 12.6246 5.91872 12.2738C5.31123 11.9187 4.84064 11.4053 4.50695 10.7337C4.17754 10.062 4.00856 9.27273 4 8.36578V7.73048C4 6.79786 4.15615 5.99144 4.46845 5.31123C4.78503 4.62674 5.2385 4.10481 5.82888 3.74545C6.42353 3.38182 7.11872 3.2 7.91444 3.2C9.02246 3.2 9.88877 3.46524 10.5134 3.99572C11.138 4.52193 11.508 5.28984 11.6235 6.29947H9.74973C9.66417 5.76471 9.4738 5.37326 9.17861 5.12513C8.8877 4.87701 8.48556 4.75294 7.97219 4.75294C7.31765 4.75294 6.81925 4.99893 6.47701 5.49091C6.13476 5.98289 5.9615 6.71444 5.95722 7.68556V8.28235C5.95722 9.26203 6.14332 10.0021 6.51551 10.5027C6.8877 11.0032 7.43316 11.2535 8.15187 11.2535C8.87487 11.2535 9.39037 11.0995 9.6984 10.7914V9.18075H7.94652V7.76257H11.6235V11.4909Z" fill="white"/>
</svg>
